<!DOCTYPE svg PUBLIC "-//W3C//DTD SVG 1.1//EN" "http://www.w3.org/Graphics/SVG/1.1/DTD/svg11.dtd">
<!-- Uploaded to: SVG Repo, www.svgrepo.com, Transformed by: SVG Repo Mixer Tools -->
<svg height="800px" width="800px" version="1.1" id="Layer_1" xmlns="http://www.w3.org/2000/svg" xmlns:xlink="http://www.w3.org/1999/xlink" viewBox="0 0 296.998 296.998" xml:space="preserve" fill="#000000">
<g id="SVGRepo_bgCarrier" stroke-width="0"/>
<g id="SVGRepo_tracerCarrier" stroke-linecap="round" stroke-linejoin="round"/>
<g id="SVGRepo_iconCarrier"> <g> <g id="XMLID_29_"> <g> <path style="fill:#EF717A;" d="M234.979,87.54c1.3,1.86,1.13,3.74,0.91,4.69c-0.21,0.96-0.87,2.74-2.86,3.88 c-2.69,1.54-6.08,0.77-7.88-1.81c-4.22-6.05-9.19-11.57-14.75-16.42s-11.71-9.03-18.3-12.41 c-44.65-22.92-99.84-4.84-123.03,40.28l-4.14,8.06c-1.74,3.38-1.46,7.44,0.72,10.55c2.19,3.1,5.9,4.74,9.68,4.25l15.84-2.05 l-7,13.62l-41.86,4.76l-20.5-36.81l7.07-13.77l7.91,14.49c1.79,3.29,5.23,5.33,8.97,5.33c0.04,0,0.08,0,0.12,0 c3.79-0.05,7.23-2.18,8.96-5.55l4.31-8.37c25.98-50.56,87.86-71.02,137.95-45.61C212.249,62.34,225.349,73.71,234.979,87.54z"/> <path d="M295.709,183.7c1.66,2.99,1.72,6.61,0.16,9.65l-18.39,35.79c-1.73,3.37-5.18,5.5-8.97,5.55 c-3.74,0.04-7.28-2.01-9.09-5.33l-8.12-14.88c-23.16,37.66-63.91,59.21-105.8,59.21c-18.53,0-37.28-4.22-54.83-13.12 c-18.15-9.2-33.85-22.84-45.41-39.44c-4.22-6.05-5.7-13.65-4.08-20.85c1.62-7.22,6.23-13.46,12.65-17.13 c11.95-6.83,26.9-3.45,34.78,7.86c6.54,9.37,15.4,17.1,25.63,22.34c31.36,16.1,69.46,6.05,89.78-22.07l-14.85,1.93 c-3.78,0.48-7.5-1.15-9.68-4.26c-2.18-3.1-2.46-7.16-0.73-10.54l18.4-35.8c1.56-3.03,4.54-5.09,7.93-5.48l54.07-6.15 c4.1-0.47,8.07,1.58,10.08,5.18L295.709,183.7z M275.199,188.87l-20.5-36.82l-41.87,4.77l-7,13.62l15.85-2.06 c3.76-0.49,7.49,1.15,9.67,4.26c2.19,3.11,2.47,7.17,0.73,10.55l-4.14,8.06c-23.19,45.12-78.38,63.19-123.03,40.28 c-13.19-6.76-24.62-16.74-33.05-28.83c-1.18-1.69-3.04-2.6-4.93-2.6c-1.01,0-2.02,0.25-2.95,0.79c-1.99,1.13-2.65,2.92-2.87,3.88 c-0.21,0.95-0.38,2.83,0.92,4.69c9.63,13.83,22.73,25.2,37.88,32.89c50.08,25.4,111.97,4.95,137.95-45.61l4.3-8.37 c1.73-3.37,5.18-5.5,8.96-5.55c3.76-0.07,7.29,2,9.1,5.33l7.9,14.49L275.199,188.87z"/> <path style="fill:#D95459;" d="M254.699,152.05l20.5,36.82l-7.08,13.77l-7.9-14.49c-1.81-3.33-5.34-5.4-9.1-5.33 c-3.78,0.05-7.23,2.18-8.96,5.55l-4.3,8.37c-25.98,50.56-87.87,71.01-137.95,45.61c-15.15-7.69-28.25-19.06-37.88-32.89 c-1.3-1.86-1.13-3.74-0.92-4.69c0.22-0.96,0.88-2.75,2.87-3.88c0.93-0.54,1.94-0.79,2.95-0.79c1.89,0,3.75,0.91,4.93,2.6 c8.43,12.09,19.86,22.07,33.05,28.83c44.65,22.91,99.84,4.84,123.03-40.28l4.14-8.06c1.74-3.38,1.46-7.44-0.73-10.55 c-2.18-3.11-5.91-4.75-9.67-4.26l-15.85,2.06l7-13.62L254.699,152.05z"/> <path d="M251.749,75.86c4.21,6.06,5.7,13.66,4.08,20.86c-1.63,7.22-6.24,13.46-12.66,17.13c-4.16,2.38-8.67,3.52-13.13,3.52 c-8.36,0-16.51-4.01-21.65-11.38c-6.53-9.37-15.4-17.1-25.62-22.34c-31.36-16.1-69.47-6.05-89.78,22.07l14.85-1.93 c3.76-0.49,7.49,1.15,9.67,4.25c2.19,3.11,2.47,7.17,0.73,10.55l-18.39,35.8c-1.56,3.03-4.54,5.09-7.94,5.48l-54.06,6.15 c-0.39,0.04-0.78,0.06-1.16,0.06c-3.67,0-7.11-1.98-8.92-5.24l-26.48-47.55c-1.66-2.98-1.72-6.6-0.16-9.64l18.4-35.79 c1.73-3.37,5.18-5.5,8.96-5.55c3.79-0.08,7.28,2,9.1,5.33l8.11,14.88c33.41-54.33,103.42-75.12,160.64-46.09 C224.489,45.63,240.189,59.27,251.749,75.86z M235.889,92.23c0.22-0.95,0.39-2.83-0.91-4.69c-9.63-13.83-22.73-25.2-37.88-32.89 c-50.09-25.41-111.97-4.95-137.95,45.61l-4.31,8.37c-1.73,3.37-5.17,5.5-8.96,5.55c-0.04,0-0.08,0-0.12,0 c-3.74,0-7.18-2.04-8.97-5.33l-7.91-14.49l-7.07,13.77l20.5,36.81l41.86-4.76l7-13.62l-15.84,2.05 c-3.78,0.49-7.49-1.15-9.68-4.25c-2.18-3.11-2.46-7.17-0.72-10.55l4.14-8.06c23.19-45.12,78.38-63.2,123.03-40.28 c6.59,3.38,12.74,7.56,18.3,12.41c5.56,4.85,10.53,10.37,14.75,16.42c1.8,2.58,5.19,3.35,7.88,1.81 C235.019,94.97,235.679,93.19,235.889,92.23z"/> </g> </g> </g> </g>
</svg>